<svg version="1.1" xmlns="http://www.w3.org/2000/svg" style="display: block;" viewBox="0 0 2048 1536" width="800" height="600" preserveAspectRatio="none">
<defs>
	<linearGradient id="Gradient1" gradientUnits="userSpaceOnUse" x1="1117.09" y1="790.774" x2="1094.42" y2="815.775">
		<stop class="stop0" offset="0" stop-opacity="1" stop-color="rgb(64,69,67)"/>
		<stop class="stop1" offset="1" stop-opacity="1" stop-color="rgb(89,83,86)"/>
	</linearGradient>
</defs>
<path transform="translate(0,0)" fill="rgb(255,255,255)" d="M 0 0 L 2048 0 L 2048 1536 L 0 1536 L 0 0 z"/>
<path transform="translate(0,0)" fill="rgb(237,30,35)" d="M 481.044 506.873 C 495.931 504.987 540.013 506.054 557.022 506.073 C 570.453 534 583.636 564.875 596.469 593.282 L 673.156 762.834 L 685.161 760.344 L 688.891 759.572 C 688.453 753.049 688.326 746.242 688.108 739.687 C 687.205 727.479 687.772 705.217 687.575 691.892 L 686.159 597.056 C 685.993 571.893 683.731 529.839 685.84 506.894 C 695.522 505.645 712.911 506.027 723.162 506.054 C 739.493 506.096 757.475 505.722 773.667 506.502 C 774.779 533.784 774.122 565.269 774.17 592.772 L 774.294 743.424 C 798.064 740.825 822.464 736.665 846.537 733.894 C 904.352 727.092 962.458 723.043 1020.66 721.762 L 1020.46 602.925 C 1020.45 571.275 1020.01 538.522 1020.88 506.95 C 1051.73 507.464 1083.21 506.934 1114.2 507.233 L 1114.85 721.304 C 1127.01 721.06 1140.47 721.686 1152.72 722.018 C 1152.07 732.99 1152.86 740.063 1157.46 750.269 C 1106.05 753.02 1054.8 758.116 1003.85 765.541 C 973.887 770.05 944.115 774.759 914.522 781.247 C 910.694 782.086 906.65 782.974 902.807 783.633 L 885.779 787.622 C 878.209 789.396 866.843 792.407 859.48 793.626 C 855.899 794.598 851.512 795.922 847.943 796.628 L 844.098 797.671 L 814.904 805.624 C 813.029 806.129 808.786 807.403 807.072 807.641 L 796.807 810.642 L 791.958 812.494 L 786.83 813.673 L 781.93 815.467 C 779.353 816.207 776.371 816.981 773.865 817.816 L 769.54 819.462 C 758.917 822.764 748.321 826.152 737.753 829.626 L 732.9 831.659 C 729.124 832.719 726.848 833.354 723.169 834.931 L 719.251 836.571 C 708.439 839.442 678.845 851.61 667.655 856.273 C 602.653 882.708 540.395 915.445 481.773 954.014 C 481.636 951.955 481.517 949.895 481.418 947.834 C 479.924 918.226 481.59 851.525 481.603 819.346 C 482.446 818.412 483.175 817.604 483.791 816.922 C 483.889 813.16 484.198 814.632 482.076 811.268 C 479.985 806.039 480.403 529.442 481.044 506.873 z"/>
<path transform="translate(0,0)" fill="rgb(237,30,35)" d="M 688.108 739.687 L 690.922 740.888 C 693.872 745.475 697.454 744.075 698.337 747.804 C 700.726 755.986 698.66 767.326 699.033 775.275 C 700.295 802.115 702.859 843.931 661.965 835.17 C 637.566 829.944 634.398 785.679 657.648 775.646 C 663.376 773.174 671.134 770.751 674.967 776.564 C 673.54 783.419 666.653 784.162 660.58 786.109 C 654.981 792.38 651.646 796.83 652.204 805.963 C 652.567 812.195 655.565 817.978 660.449 821.867 C 673.826 832.32 688.197 818.285 689.271 804.482 C 690.393 790.063 689.792 774.072 688.891 759.572 C 688.453 753.049 688.326 746.242 688.108 739.687 z"/>
<path transform="translate(0,0)" fill="rgb(237,30,35)" d="M 773.865 817.816 C 760.121 786.677 793.862 759.52 820.509 780.468 C 829.051 787.183 808.783 798.263 807.072 807.641 L 796.807 810.642 L 791.958 812.494 L 786.83 813.673 L 781.93 815.467 C 779.353 816.207 776.371 816.981 773.865 817.816 z"/>
<path transform="translate(0,0)" fill="rgb(244,72,78)" d="M 781.93 815.467 C 778.006 795.967 787.093 777.456 809.358 786.025 C 804.648 792.134 791.405 803.215 796.807 810.642 L 791.958 812.494 L 786.83 813.673 L 781.93 815.467 z"/>
<path transform="translate(0,0)" fill="rgb(203,33,33)" d="M 786.83 813.673 C 780.443 797.824 792.704 790.248 804.848 785.023 C 796.239 794.805 787.473 797.658 791.958 812.494 L 786.83 813.673 z"/>
<path transform="translate(0,0)" fill="rgb(244,72,78)" d="M 690.922 740.888 C 695.329 739.499 701.886 741.441 702.048 746.002 C 702.659 763.236 706.412 810.324 697.341 824.179 C 670.839 864.661 619.264 821.26 644.303 782.966 C 648.888 776.014 656.089 771.21 664.269 769.647 C 668.015 768.932 670.761 768.787 674.581 769.22 C 676.978 771.783 681.969 782.178 676.935 783.877 C 667.362 787.108 646.462 799.162 656.637 811.772 C 690.754 854.057 688.517 763.706 685.161 760.344 L 688.891 759.572 C 689.792 774.072 690.393 790.063 689.271 804.482 C 688.197 818.285 673.826 832.32 660.449 821.867 C 655.565 817.978 652.567 812.195 652.204 805.963 C 651.646 796.83 654.981 792.38 660.58 786.109 C 666.653 784.162 673.54 783.419 674.967 776.564 C 671.134 770.751 663.376 773.174 657.648 775.646 C 634.398 785.679 637.566 829.944 661.965 835.17 C 702.859 843.931 700.295 802.115 699.033 775.275 C 698.66 767.326 700.726 755.986 698.337 747.804 C 697.454 744.075 693.872 745.475 690.922 740.888 z"/>
<path transform="translate(0,0)" fill="rgb(237,30,35)" d="M 723.169 834.931 C 721.868 820.454 719.67 799.498 725.751 785.934 C 729.282 778.059 740.674 769.609 749.474 774.248 C 753.053 785.542 739.101 782.976 736.055 788.693 C 730.799 798.557 731.926 821.007 732.9 831.659 C 729.124 832.719 726.848 833.354 723.169 834.931 z"/>
<path transform="translate(0,0)" fill="rgb(237,30,35)" d="M 847.943 796.628 L 847.467 795.402 C 847.961 792.797 848.714 791.332 849.977 789.057 C 861.694 767.955 878.753 769.508 897.015 780.567 L 900.033 779.773 C 900.465 780.337 902.684 783.527 902.807 783.633 L 885.779 787.622 C 878.209 789.396 866.843 792.407 859.48 793.626 C 855.899 794.598 851.512 795.922 847.943 796.628 z"/>
<path transform="translate(0,0)" fill="rgb(244,72,78)" d="M 859.48 793.626 C 863.89 784.546 878.299 779.533 885.779 787.622 C 878.209 789.396 866.843 792.407 859.48 793.626 z"/>
<path transform="translate(0,0)" fill="rgb(244,72,78)" d="M 719.251 836.571 C 718.221 819.728 715.648 791.682 726.888 777.253 C 733.093 769.288 755.726 764.162 755.553 778.414 C 751.6 786.556 744.389 786.312 739.097 790.737 C 734.771 794.355 734.696 826.258 737.753 829.626 L 732.9 831.659 C 731.926 821.007 730.799 798.557 736.055 788.693 C 739.101 782.976 753.053 785.542 749.474 774.248 C 740.674 769.609 729.282 778.059 725.751 785.934 C 719.67 799.498 721.868 820.454 723.169 834.931 L 719.251 836.571 z"/>
<path transform="translate(0,0)" fill="rgb(244,72,78)" d="M 769.54 819.462 C 766.731 806.827 766.102 795.353 773.336 783.92 C 777.88 776.628 785.189 771.493 793.589 769.693 C 801.58 767.953 811.02 768.961 817.488 774.223 C 831.917 785.962 822.608 792.878 814.514 803.303 L 814.904 805.624 C 813.029 806.129 808.786 807.403 807.072 807.641 C 808.783 798.263 829.051 787.183 820.509 780.468 C 793.862 759.52 760.121 786.677 773.865 817.816 L 769.54 819.462 z"/>
<path transform="translate(0,0)" fill="rgb(255,255,255)" d="M 482.076 811.268 C 504.348 806.81 528.226 798.162 550.33 794.654 C 542.309 797.731 489.003 816.904 483.791 816.922 C 483.889 813.16 484.198 814.632 482.076 811.268 z"/>
<path transform="translate(0,0)" fill="rgb(244,72,78)" d="M 844.098 797.671 C 844.265 791.516 848.573 783.734 852.719 779.282 C 858.588 772.959 866.745 769.248 875.369 768.979 C 886.15 768.593 892.533 772.767 900.033 779.773 L 897.015 780.567 C 878.753 769.508 861.694 767.955 849.977 789.057 C 848.714 791.332 847.961 792.797 847.467 795.402 L 847.943 796.628 L 844.098 797.671 z"/>
<path transform="translate(0,0)" fill="rgb(255,255,255)" d="M 567.959 751.848 C 571.221 755.972 581.599 778.095 584.292 784.037 L 583.645 785.485 L 568.247 789.892 C 567.831 778.624 567.39 762.849 567.959 751.848 z"/>
<path transform="translate(0,0)" fill="rgb(237,30,35)" d="M 1175.9 510.881 L 1176.07 507.512 C 1176.67 507.075 1177.28 506.639 1177.88 506.203 C 1221.22 506.78 1299.83 505.024 1339.37 506.207 C 1347.38 506.417 1355.38 507.147 1363.3 508.392 C 1404.44 514.958 1441.29 537.57 1465.77 571.268 C 1487.86 602.093 1496.51 640.556 1489.75 677.871 C 1484.16 710.454 1470.96 730.023 1450.57 754.323 C 1452.34 756.67 1456.57 757.23 1459.65 758.175 C 1455.74 759.421 1454.44 759.246 1450.38 758.661 C 1451.49 761.031 1452.74 760.823 1454.32 762.922 C 1375.27 751.936 1295.49 747.063 1215.69 748.346 C 1212.71 748.539 1209.79 748.764 1206.81 748.785 L 1193.83 748.841 L 1186.07 749.113 C 1177.14 750.244 1166.56 750.116 1157.46 750.269 C 1152.86 740.063 1152.07 732.99 1152.72 722.018 C 1158 722.041 1167.4 721.726 1172.18 722.948 C 1173.84 722.751 1173.21 722.886 1174.72 721.922 C 1175.52 718.047 1174.99 683.321 1174.99 676.813 L 1175.01 569.842 C 1175.02 554.871 1174.29 524.665 1175.9 510.881 z"/>
<path transform="translate(0,0)" fill="rgb(244,72,78)" d="M 1175.9 510.881 C 1177.08 529.543 1176.24 557.372 1176.21 576.896 L 1176.01 699.902 C 1211.77 696.487 1217.79 717.354 1213.67 747.25 L 1215.69 748.346 C 1212.71 748.539 1209.79 748.764 1206.81 748.785 L 1193.83 748.841 L 1186.07 749.113 C 1177.14 750.244 1166.56 750.116 1157.46 750.269 C 1152.86 740.063 1152.07 732.99 1152.72 722.018 C 1158 722.041 1167.4 721.726 1172.18 722.948 C 1173.84 722.751 1173.21 722.886 1174.72 721.922 C 1175.52 718.047 1174.99 683.321 1174.99 676.813 L 1175.01 569.842 C 1175.02 554.871 1174.29 524.665 1175.9 510.881 z"/>
<path transform="translate(0,0)" fill="rgb(244,72,78)" d="M 1152.72 722.018 C 1158 722.041 1167.4 721.726 1172.18 722.948 C 1167.04 731.27 1167.84 737.763 1174.79 744.792 C 1179.32 745.006 1183.64 745.249 1188.18 745.161 L 1187.32 746.372 C 1189.56 747.046 1191.74 747.614 1194 748.204 L 1193.83 748.841 L 1186.07 749.113 C 1177.14 750.244 1166.56 750.116 1157.46 750.269 C 1152.86 740.063 1152.07 732.99 1152.72 722.018 z"/>
<path transform="translate(0,0)" fill="rgb(237,30,35)" d="M 1172.18 722.948 C 1167.04 731.27 1167.84 737.763 1174.79 744.792 C 1171.95 748.04 1171.78 748.663 1167.01 747.884 C 1164.23 740.759 1159.52 731.705 1163.44 724.666 C 1166.97 722.409 1167.61 723.108 1172.18 722.948 z"/>
<path transform="translate(0,0)" fill="rgb(203,33,33)" d="M 1174.79 744.792 C 1179.32 745.006 1183.64 745.249 1188.18 745.161 L 1187.32 746.372 C 1189.56 747.046 1191.74 747.614 1194 748.204 L 1193.83 748.841 L 1186.07 749.113 C 1180.87 748.676 1170.31 749.634 1167.01 747.884 C 1171.78 748.663 1171.95 748.04 1174.79 744.792 z"/>
<path transform="translate(0,0)" fill="rgb(237,30,35)" d="M 1176.23 723.16 C 1183.82 722.799 1187.94 721.818 1194.39 726.892 C 1201.35 732.369 1198.53 741.846 1194 748.204 C 1191.74 747.614 1189.56 747.046 1187.32 746.372 L 1188.18 745.161 C 1189.99 741.826 1191.57 739.692 1191.82 735.942 C 1190.63 733.404 1190.34 732.091 1187.98 730.602 C 1185.07 733.037 1185.64 736.508 1182.99 741.398 L 1181.07 741.741 C 1175.17 737.954 1175.76 729.506 1176.23 723.16 z"/>
<path transform="translate(0,0)" fill="rgb(203,33,33)" d="M 1176.43 718.889 C 1176.12 715.69 1175.31 712.394 1176.85 709.737 C 1196.29 700.647 1218.17 725.422 1206.95 748.192 C 1204.92 747.975 1204.99 748.036 1203.15 747.173 C 1204.78 737.102 1208.12 724.194 1197.81 717.554 C 1190.82 713.049 1181.79 711.075 1176.43 718.889 z"/>
<path transform="translate(0,0)" fill="rgb(255,255,255)" d="M 1269.62 595.118 L 1311.39 595.126 C 1337.72 595.065 1359.83 593.116 1380.56 612.919 C 1391.44 623.262 1397.75 637.517 1398.08 652.526 C 1398.39 669.84 1391.65 681.648 1380.1 693.681 C 1358.32 713.536 1339 711.731 1311.49 711.714 L 1269.77 711.733 C 1269.04 673.439 1269.55 633.504 1269.62 595.118 z"/>
<path transform="translate(0,0)" fill="rgb(35,32,33)" d="M 1189.74 766.713 C 1265.99 760.423 1368.25 757.631 1445.12 765.744 C 1493.07 821.156 1483.29 868.843 1484.22 935.947 C 1484.61 964.46 1485.29 993.407 1484.73 1021.86 C 1452.98 1022.14 1421.23 1022.19 1389.47 1022 L 1389.46 914.836 C 1389.49 870.134 1397.82 837.873 1356.01 809.615 L 1352.93 807.797 L 1344.95 804.39 L 1338.56 802.529 L 1333.21 801.483 C 1314.86 798.748 1288.26 802.353 1269.57 800.176 C 1269.51 811.091 1269.66 823.045 1269.21 833.869 C 1268.96 895.045 1270.2 961.326 1268.44 1022.05 C 1237.79 1022.04 1204.79 1022.58 1174.32 1021.94 C 1174.11 980.685 1174.16 939.433 1174.46 898.182 C 1174.58 879.502 1175.42 856.499 1174.79 838.124 L 1175.11 836.504 L 1175.3 824.758 C 1174.28 808.745 1175.29 785.085 1174.92 767.861 C 1179.51 767.026 1185.02 766.936 1189.74 766.713 z"/>
<path transform="translate(0,0)" fill="rgb(81,79,79)" d="M 1245.74 793.023 C 1211.88 772.796 1234.88 828.494 1221.29 839.95 C 1216.72 840.888 1214.71 840.082 1210.53 837.868 C 1209.6 836.271 1208.77 834.682 1208.58 833.391 C 1204.47 802.582 1207.91 750.383 1253.56 774.783 C 1255.62 775.887 1289.36 749.099 1300.16 799.731 L 1316.35 799.717 C 1319.81 781.901 1328.55 769.749 1348.01 768.721 C 1357.6 768.215 1375.33 774.92 1374.94 786.187 C 1374.68 793.613 1361.35 804.615 1356.01 809.615 L 1352.93 807.797 L 1344.95 804.39 L 1338.56 802.529 L 1333.21 801.483 C 1314.86 798.748 1288.26 802.353 1269.57 800.176 C 1269.51 811.091 1269.66 823.045 1269.21 833.869 C 1262.73 834.866 1260.53 840.313 1254.69 840.191 C 1241.06 839.908 1245.68 802.526 1245.74 793.023 z"/>
<path transform="translate(0,0)" fill="rgb(35,32,33)" d="M 1344.95 804.39 C 1347.93 796.088 1357.06 790.897 1357.41 785.891 C 1352.64 781.141 1342.88 782.134 1338.25 786.828 C 1333.87 791.273 1331.94 798.189 1325.74 799.916 C 1322.23 799.154 1323.49 800.083 1321.66 797.307 C 1320.75 778.609 1350.17 763.225 1367.54 780.927 C 1369.12 782.527 1370.64 784.186 1372.09 785.901 C 1364.94 795.044 1361.31 799.638 1352.93 807.797 L 1344.95 804.39 z"/>
<path transform="translate(0,0)" fill="rgb(35,32,33)" d="M 1270.6 787.512 C 1275.4 788.166 1280.59 791.18 1281.22 796.397 C 1278.94 801.775 1275.12 799.172 1269.57 800.176 L 1268.22 804.05 L 1267.68 803.29 L 1268.63 802.313 L 1266.53 803.157 C 1260.79 798.443 1263.18 790.004 1270.6 787.512 z"/>
<path transform="translate(0,0)" fill="rgb(35,32,33)" d="M 1333.21 801.483 C 1339.22 790.185 1343.52 789.739 1355.66 785.11 C 1349.95 790.134 1342.73 796.246 1338.56 802.529 L 1333.21 801.483 z"/>
<path transform="translate(0,0)" fill="rgb(35,32,33)" d="M 1235.31 773.171 C 1244 772.886 1245.35 775.274 1251.31 778.809 C 1252.8 779.692 1266.13 774.061 1268.04 773.344 C 1269.38 772.841 1275.69 773.052 1277.76 773.122 C 1286.47 777.985 1291.42 780.957 1293.91 791.206 C 1294.66 794.284 1295.75 797.151 1294.37 799.553 L 1288.02 799.551 C 1283.43 797.368 1282.48 789.06 1279.18 786.337 C 1275.93 783.666 1264.55 782.81 1261.39 786.217 C 1254.74 793.401 1265.37 835.919 1253.3 836.245 C 1250.29 833.88 1251.23 835.092 1250.03 831.222 C 1249.53 818.63 1252.72 798.297 1246.2 788.919 C 1243.05 784.388 1237.18 783.899 1232.03 783.036 C 1226.65 787.36 1225.57 788.947 1221.65 794.552 C 1220.8 802.267 1224.38 837.335 1214.79 836.261 C 1213.59 835.149 1211.97 833.279 1212.04 831.507 C 1213.03 808.716 1204.41 778.032 1235.31 773.171 z"/>
<path transform="translate(0,0)" fill="rgb(35,32,33)" d="M 1174.92 767.861 C 1179.51 767.026 1185.02 766.936 1189.74 766.713 C 1187.97 772.02 1190.35 772.086 1190.46 777.112 C 1190.84 795.602 1193.31 821.945 1188.57 839.403 C 1184.19 839.285 1178.79 839.511 1174.79 838.124 L 1175.11 836.504 L 1175.3 824.758 C 1174.28 808.745 1175.29 785.085 1174.92 767.861 z"/>
<path transform="translate(0,0)" fill="rgb(81,79,79)" d="M 1174.92 767.861 C 1179.51 767.026 1185.02 766.936 1189.74 766.713 C 1187.97 772.02 1190.35 772.086 1190.46 777.112 C 1190.84 795.602 1193.31 821.945 1188.57 839.403 C 1184.19 839.285 1178.79 839.511 1174.79 838.124 L 1175.11 836.504 C 1179.52 835.033 1180.04 837.187 1185.6 835.698 C 1187.88 830.434 1188.11 778.47 1185.79 773.648 C 1182.52 772.462 1183.83 772.691 1180.17 773.424 C 1170.76 781.353 1180 816.149 1175.3 824.758 C 1174.28 808.745 1175.29 785.085 1174.92 767.861 z"/>
<path transform="translate(0,0)" fill="rgb(35,32,33)" d="M 1108.89 775.599 L 1113.73 775.542 C 1115.32 777.592 1114.84 776.395 1114.65 779.417 C 1115.16 799.424 1115.84 829.326 1114.87 849.056 C 1114.97 853.194 1115.02 857.333 1115.04 861.471 C 1115.38 911.589 1106.77 947.767 1070.19 984.674 C 1041.91 1013.6 1003.06 1029.76 962.605 1029.42 C 890.861 1029.53 829.649 985.791 813.643 913.993 C 808.688 891.767 809.78 868.711 809.819 846.056 C 831.501 838.112 878.737 841.049 904.11 841.368 C 904.179 855.204 904.319 869 904.508 882.831 C 905.201 933.528 965.696 959.473 1002.11 922.703 C 1009.46 915.366 1014.84 906.297 1017.76 896.332 C 1022.54 879.571 1020.42 811.56 1020.42 790.429 C 1030.61 788.304 1040.82 786.322 1051.06 784.483 L 1057.29 783.703 L 1065.1 782.218 C 1074.51 780.534 1083.97 779.145 1093.46 778.053 L 1097.8 777.117 C 1100.96 776.901 1105.63 776.071 1108.89 775.599 z"/>
<path transform="translate(0,0)" fill="rgb(81,79,79)" d="M 1065.1 782.218 C 1074.51 780.534 1083.97 779.145 1093.46 778.053 L 1092.02 779.92 C 1085.73 787.998 1077.82 788.782 1068.24 790.866 C 1068.03 802.912 1069.41 823.726 1059.77 832.718 C 1052.92 839.102 1038.05 844.986 1030.48 836.915 C 1027.14 833.35 1028.79 827.643 1029.3 823.191 C 1060.09 816.892 1048.6 814.446 1051.06 784.483 L 1057.29 783.703 L 1065.1 782.218 z"/>
<path transform="translate(0,0)" fill="rgb(35,32,33)" d="M 1057.29 783.703 L 1065.1 782.218 L 1068.17 783.559 L 1068.47 785.483 L 1067.84 786.232 C 1066.81 787.488 1064.21 790.48 1064.23 792.003 C 1064.47 812.181 1063.64 844.468 1033.09 834.539 C 1031.43 831.573 1031.82 832.84 1032.32 828.996 C 1038.06 821.182 1048.94 826.245 1051.59 820.44 C 1057.01 808.591 1049.44 795.988 1057.29 783.703 z"/>
<path transform="translate(0,0)" fill="rgb(35,32,33)" d="M 1108.89 775.599 L 1113.73 775.542 C 1115.32 777.592 1114.84 776.395 1114.65 779.417 C 1115.16 799.424 1115.84 829.326 1114.87 849.056 C 1114.45 845.822 1114.33 841.34 1114.14 837.986 C 1097.83 818.083 1101.67 808.974 1100.64 783.975 C 1100.47 779.714 1100.34 779.498 1097.8 777.117 C 1100.96 776.901 1105.63 776.071 1108.89 775.599 z"/>
<path transform="translate(0,0)" fill="url(#Gradient1)" d="M 1097.8 777.117 C 1100.96 776.901 1105.63 776.071 1108.89 775.599 C 1102.06 782.351 1103.92 819.432 1110.54 827.137 L 1112.91 828.037 C 1115.78 823.313 1112.08 788.632 1114.65 779.417 C 1115.16 799.424 1115.84 829.326 1114.87 849.056 C 1114.45 845.822 1114.33 841.34 1114.14 837.986 C 1097.83 818.083 1101.67 808.974 1100.64 783.975 C 1100.47 779.714 1100.34 779.498 1097.8 777.117 z"/>
<path transform="translate(0,0)" fill="rgb(35,32,33)" d="M 771.658 859.958 L 773.888 860.108 C 775.505 864.031 775.141 1007.46 774.594 1021.85 C 751.445 1022.6 725.439 1022.05 702.073 1022.07 C 697.653 1011.94 691.045 999.558 685.998 989.485 C 674.332 964.479 660.729 938.71 648.58 913.683 C 691.604 893.004 727.224 877.241 771.658 859.958 z"/>
<path transform="translate(0,0)" fill="rgb(35,32,33)" d="M 570.257 957.051 C 573.034 961.317 572.77 1013.13 571.956 1021.29 C 564.169 1022.46 548.654 1022.1 540.375 1022.1 C 521.896 1022.15 503.416 1022.07 484.938 1021.85 C 481.995 1020.45 483.089 1021.46 481.364 1018.93 C 484.54 1010.5 557.172 965.001 570.257 957.051 z"/>
<path transform="translate(0,0)" fill="rgb(203,33,33)" d="M 1459.65 758.175 C 1475.08 759.108 1512.28 769.966 1529.26 773.394 L 1527.82 775.516 C 1512.52 770.895 1470.91 765.139 1454.32 762.922 C 1452.74 760.823 1451.49 761.031 1450.38 758.661 C 1454.44 759.246 1455.74 759.421 1459.65 758.175 z"/>
<path transform="translate(0,0)" fill="rgb(176,114,115)" d="M 1529.26 773.394 C 1533.06 774.104 1548.69 777.586 1551.61 779.523 C 1543.24 778.499 1536.07 777.121 1527.82 775.516 L 1529.26 773.394 z"/>
</svg>